<svg width="12" height="13" viewBox="0 0 12 13" fill="none" xmlns="http://www.w3.org/2000/svg">
<path d="M5.71829 0.384277C5.53085 0.384277 5.37278 0.52564 5.3522 0.711611L5.32205 0.990132C5.2875 1.30107 5.05927 1.55266 4.75496 1.6247C4.67924 1.64308 4.60236 1.66151 4.52812 1.68356C4.22968 1.7703 3.90934 1.66719 3.72558 1.41653L3.56047 1.19256C3.44948 1.04187 3.24341 0.998712 3.08096 1.09207L2.79957 1.2543C2.63712 1.34765 2.57097 1.54818 2.64595 1.71946L2.7608 1.97931C2.88576 2.26452 2.81419 2.59449 2.58852 2.80913C2.53266 2.86206 2.47852 2.91693 2.42486 2.9728C2.20948 3.19846 1.87954 3.27078 1.5936 3.14508L1.33374 3.03166C1.16247 2.95669 0.961937 3.02139 0.868584 3.18384L0.706353 3.46524C0.612999 3.62769 0.656161 3.83519 0.80685 3.94619L1.03081 4.11129C1.28147 4.29506 1.38459 4.6154 1.29785 4.91383C1.27653 4.98807 1.25736 5.06352 1.23899 5.13923C1.16695 5.44355 0.915352 5.67178 0.604419 5.70633L0.325898 5.73791C0.140662 5.75776 0 5.91513 0 6.10257V6.42703C0 6.61448 0.141362 6.77255 0.327333 6.79313L0.605855 6.82328C0.916788 6.85783 1.16695 7.08606 1.23899 7.39037C1.25736 7.46608 1.27723 7.54297 1.29929 7.61721C1.38602 7.91565 1.28291 8.23598 1.03225 8.41975L0.80685 8.58485C0.656161 8.69585 0.612999 8.90192 0.706353 9.06437L0.868584 9.34576C0.961937 9.50821 1.16391 9.57436 1.33518 9.49938L1.59504 9.38453C1.88024 9.25956 2.21022 9.33114 2.42486 9.55681C2.47778 9.61267 2.53266 9.66681 2.58852 9.72047C2.81419 9.93585 2.8865 10.2658 2.7608 10.5517L2.64595 10.8116C2.57097 10.9829 2.63712 11.1827 2.79957 11.2767L3.08096 11.439C3.24341 11.5323 3.44948 11.4892 3.56047 11.3385L3.72558 11.1145C3.90934 10.8639 4.22968 10.7607 4.52812 10.8475C4.60236 10.8688 4.67924 10.888 4.75496 10.9063C5.05927 10.9784 5.2875 11.23 5.32205 11.5409L5.3522 11.8194C5.37278 12.0047 5.53085 12.1453 5.71829 12.1453H6.04276C6.2302 12.1453 6.38827 12.004 6.40885 11.818L6.439 11.5395C6.47355 11.2285 6.70178 10.9784 7.00609 10.9063C7.08181 10.888 7.15869 10.8674 7.23293 10.846C7.53137 10.7593 7.85171 10.8624 8.03547 11.1131L8.20058 11.3385C8.31157 11.4892 8.51764 11.5323 8.68009 11.439L8.96148 11.2767C9.12393 11.1834 9.19008 10.9814 9.1151 10.8102L9.00025 10.5503C8.87529 10.2651 8.94686 9.93585 9.17253 9.72047C9.22839 9.66755 9.28254 9.61267 9.3362 9.55681C9.55157 9.33114 9.88081 9.25883 10.166 9.38453L10.4259 9.49794C10.5971 9.57292 10.7984 9.50821 10.8925 9.34576L11.0547 9.06437C11.1481 8.90192 11.1049 8.69441 10.9542 8.58342L10.7288 8.41832C10.4781 8.23455 10.375 7.91421 10.4618 7.61577C10.4831 7.54153 10.5037 7.46608 10.5221 7.39037C10.5941 7.08606 10.8443 6.85783 11.1552 6.82328L11.4352 6.7917C11.6204 6.77185 11.7611 6.61448 11.7611 6.42703V6.10257C11.7611 5.91513 11.6197 5.75706 11.4337 5.73647L11.1552 5.70633C10.8443 5.67178 10.5927 5.44355 10.5206 5.13923C10.5023 5.06352 10.4838 4.98664 10.4618 4.9124C10.375 4.61396 10.4781 4.29362 10.7288 4.10985L10.9528 3.94475C11.1035 3.83376 11.1466 3.62769 11.0533 3.46524L10.891 3.18384C10.7977 3.02139 10.5971 2.95525 10.4259 3.03023L10.166 3.14508C9.88081 3.27004 9.55013 3.19846 9.33476 2.9728C9.28184 2.91693 9.22696 2.86279 9.17109 2.80913C8.94543 2.59376 8.87312 2.26452 8.99881 1.97931L9.11367 1.71946C9.18864 1.54818 9.1225 1.34695 8.96005 1.25286L8.67866 1.09063C8.51621 0.997276 8.31014 1.04044 8.19914 1.19113L8.03404 1.41653C7.85027 1.66719 7.52993 1.7703 7.2315 1.68356C7.15725 1.66225 7.08037 1.64164 7.00466 1.62327C6.70034 1.55123 6.47212 1.30106 6.43757 0.990132L6.40742 0.711611C6.38831 0.52564 6.2302 0.384277 6.04276 0.384277H5.71829ZM5.88053 3.32454C7.50429 3.32454 8.82079 4.64104 8.82079 6.2648C8.82079 7.88856 7.50429 9.20507 5.88053 9.20507C4.25677 9.20507 2.94026 7.88856 2.94026 6.2648C2.94026 4.64104 4.25677 3.32454 5.88053 3.32454ZM5.88053 4.79467C5.06828 4.79467 4.41039 5.45256 4.41039 6.2648C4.41039 7.07705 5.06828 7.73493 5.88053 7.73493C6.69277 7.73493 7.35066 7.07705 7.35066 6.2648C7.35066 5.45256 6.69277 4.79467 5.88053 4.79467Z" fill="#515151"/>
</svg>
